<svg xmlns="http://www.w3.org/2000/svg" xml:space="preserve" width="655.359" height="655.359" style="shape-rendering:geometricPrecision;text-rendering:geometricPrecision;image-rendering:optimizeQuality;fill-rule:evenodd;clip-rule:evenodd" viewBox="0 0 6.827 6.827"><defs><style>.fil0,.fil1{fill:#212121;fill-rule:nonzero}.fil0{fill:#66bb6a}</style></defs><g id="Layer_x0020_1"><path class="fil0" d="M5.838 5.547a.107.107 0 0 0 0-.214H.989a.107.107 0 0 0 0 .214h4.849z"/><path class="fil1" d="M1.904 2.466a.107.107 0 0 0-.213 0v.931c0 .474.194.905.506 1.217a1.718 1.718 0 0 0 2.434 0c.312-.312.505-.743.505-1.217v-.93a.107.107 0 0 0-.213 0v.93c0 .415-.17.793-.443 1.066a1.505 1.505 0 0 1-2.132 0 1.505 1.505 0 0 1-.444-1.066v-.93z"/><path class="fil1" d="M3.414 2.305c-.442 0-.84.029-1.126.076-.237.04-.384.071-.384.085 0 .014.147.045.384.085.286.047.684.077 1.126.077.441 0 .839-.03 1.125-.077.237-.04.384-.071.384-.085 0-.014-.147-.045-.384-.085a7.257 7.257 0 0 0-1.125-.076zm-1.16-.134a7.46 7.46 0 0 1 1.16-.08c.45 0 .86.03 1.16.08.347.058.562.16.562.295 0 .134-.215.237-.563.295a7.46 7.46 0 0 1-1.16.08c-.45 0-.86-.03-1.16-.08-.347-.058-.562-.16-.562-.295 0-.134.215-.237.563-.295z"/><path class="fil1" d="M1.798 2.83a.106.106 0 0 0-.014-.212 1.041 1.041 0 0 0-.654.283.774.774 0 0 0-.246.61c.016.232.14.433.329.57.182.135.426.208.686.19a.106.106 0 0 0-.014-.212.828.828 0 0 1-.547-.149.564.564 0 0 1-.241-.413.565.565 0 0 1 .181-.443.827.827 0 0 1 .52-.224z"/><path class="fil0" d="M3.414 3.219c.243 0 .465.061.628.16.178.109.289.264.289.44s-.11.331-.289.44c-.163.099-.385.16-.628.16-.244 0-.466-.061-.629-.16-.178-.109-.289-.264-.289-.44s.11-.331.29-.44c.162-.099.384-.16.628-.16zm.517.342a1.012 1.012 0 0 0-.517-.129c-.205 0-.388.05-.518.129-.115.07-.186.161-.186.258 0 .096.07.188.186.258.13.08.313.129.518.129.204 0 .387-.05.517-.13.115-.069.186-.16.186-.257s-.07-.188-.186-.258z"/><path class="fil0" d="M2.644 3.72a.106.106 0 0 0-.082.197c.483.202.734.107.974.016.18-.068.353-.134.648-.015a.106.106 0 0 0 .08-.198c-.373-.149-.584-.07-.803.014-.201.076-.412.156-.817-.013z"/><path class="fil1" d="M3.138 1.443a.106.106 0 0 0-.18-.113c-.219.346-.115.526-.016.699.06.103.117.203.015.37a.106.106 0 0 0 .182.11c.166-.274.079-.427-.013-.586-.068-.118-.139-.241.012-.48zM3.885 1.443a.106.106 0 0 0-.18-.113c-.22.346-.116.526-.016.699.06.103.116.203.015.37a.106.106 0 0 0 .182.11c.166-.274.078-.427-.013-.586-.068-.118-.14-.241.012-.48z"/></g><path style="fill:none" d="M0 0h6.827v6.827H0z"/></svg>